<?xml version="1.0"?>
<svg xmlns="http://www.w3.org/2000/svg" xmlns:xlink="http://www.w3.org/1999/xlink" xmlns:svgjs="http://svgjs.com/svgjs" version="1.1" width="512" height="512" x="0" y="0" viewBox="0 0 74 74" style="enable-background:new 0 0 512 512" xml:space="preserve" class=""><g><path xmlns="http://www.w3.org/2000/svg" d="m50.469 70.57a1 1 0 0 1 -.214-1.977c.906-.2 1.843-.442 2.863-.742a1 1 0 0 1 .565 1.919c-1.066.313-2.046.567-3 .776a1.007 1.007 0 0 1 -.214.024z" fill="#ff8400" data-original="#000000" style="" class=""/><path xmlns="http://www.w3.org/2000/svg" d="m36.391 72.041c-16.436 0-27.66-5.94-30.6-12.575-6.25-14.056 20.23-45.189 21.36-46.507a1 1 0 0 1 .759-.349h18.18a1 1 0 0 1 .759.349c1.125 1.312 27.477 32.3 21.41 46.4a1 1 0 0 1 -1.838-.79c2.273-5.282-.612-14.578-8.344-26.882a167.607 167.607 0 0 0 -12.452-17.077h-17.25a167.537 167.537 0 0 0 -12.507 17.16c-7.735 12.33-10.59 21.63-8.254 26.884 2.97 6.687 16.4 12.837 35.433 11.071a1 1 0 1 1 .1 2h-.01c-2.331.213-4.585.316-6.746.316z" fill="#ff8400" data-original="#000000" style="" class=""/><path xmlns="http://www.w3.org/2000/svg" d="m59.951 67.2a1 1 0 0 1 -.475-1.88 22.627 22.627 0 0 0 2.393-1.484 1 1 0 1 1 1.162 1.628 24.4 24.4 0 0 1 -2.606 1.616.99.99 0 0 1 -.474.12z" fill="#ff8400" data-original="#000000" style="" class=""/><path xmlns="http://www.w3.org/2000/svg" d="m46.091 14.605h-18.182a1 1 0 0 1 -.934-.644l-4.04-10.6a1 1 0 0 1 .934-1.361h26.262a1 1 0 0 1 .934 1.356l-4.04 10.605a1 1 0 0 1 -.934.644zm-17.492-2h16.801l3.28-8.605h-23.36z" fill="#ff8400" data-original="#000000" style="" class=""/><path xmlns="http://www.w3.org/2000/svg" d="m37 61.123a15.562 15.562 0 1 1 15.562-15.561 15.579 15.579 0 0 1 -15.562 15.561zm0-29.123a13.562 13.562 0 1 0 13.562 13.562 13.577 13.577 0 0 0 -13.562-13.562z" fill="#ff8400" data-original="#000000" style="" class=""/><path xmlns="http://www.w3.org/2000/svg" d="m37 46.562a4.759 4.759 0 1 1 4.758-4.762 1 1 0 0 1 -2 0 2.758 2.758 0 1 0 -2.758 2.762 1 1 0 0 1 0 2z" fill="#ff8400" data-original="#000000" style="" class=""/><path xmlns="http://www.w3.org/2000/svg" d="m37 54.078a4.764 4.764 0 0 1 -4.758-4.758 1 1 0 0 1 2 0 2.758 2.758 0 1 0 2.758-2.758 1 1 0 0 1 0-2 4.758 4.758 0 1 1 0 9.516z" fill="#ff8400" data-original="#000000" style="" class=""/><path xmlns="http://www.w3.org/2000/svg" d="m37 55.75a1 1 0 0 1 -1-1v-1.67a1 1 0 0 1 2 0v1.67a1 1 0 0 1 -1 1z" fill="#ff8400" data-original="#000000" style="" class=""/><path xmlns="http://www.w3.org/2000/svg" d="m37 39.05a1 1 0 0 1 -1-1v-1.68a1 1 0 0 1 2 0v1.68a1 1 0 0 1 -1 1z" fill="#ff8400" data-original="#000000" style="" class=""/><path xmlns="http://www.w3.org/2000/svg" d="m59.667 20a1 1 0 0 1 -.372-.072l-13.6-5.449a1 1 0 0 1 -.055-1.833l6.935-3.285a1 1 0 0 1 .856 1.808l-4.866 2.3 11.477 4.6a1 1 0 0 1 -.375 1.931z" fill="#ff8400" data-original="#000000" style="" class=""/></g></svg>
