<?xml version="1.0"?>
<svg xmlns="http://www.w3.org/2000/svg" xmlns:xlink="http://www.w3.org/1999/xlink" xmlns:svgjs="http://svgjs.com/svgjs" version="1.1" width="512" height="512" x="0" y="0" viewBox="0 0 74 74" style="enable-background:new 0 0 512 512" xml:space="preserve" class=""><g><path xmlns="http://www.w3.org/2000/svg" d="m46.416 27.566h-17.785a1 1 0 0 1 -.989-1.15l3.335-22a1 1 0 0 1 .988-.85h11.116a1 1 0 0 1 .988.85l3.335 22a1 1 0 0 1 -.988 1.15zm-16.622-2h15.458l-3.031-20h-9.4z" fill="#ff8400" data-original="#000000" style="" class=""/><path xmlns="http://www.w3.org/2000/svg" d="m46.416 43.787h-17.785a1 1 0 0 1 -1-1v-16.221a1 1 0 0 1 1-1h17.785a1 1 0 0 1 1 1v16.221a1 1 0 0 1 -1 1zm-16.785-2h15.785v-14.221h-15.785z" fill="#ff8400" data-original="#000000" style="" class=""/><path xmlns="http://www.w3.org/2000/svg" d="m45.5 70.43h-2.94a1 1 0 0 1 0-2h2.94a1 1 0 0 1 0 2z" fill="#ff8400" data-original="#000000" style="" class=""/><path xmlns="http://www.w3.org/2000/svg" d="m71 70.43h-8.56a1 1 0 0 1 0-2h7.56v-40.86h-66v40.86h31.56a1 1 0 0 1 0 2h-32.56a1 1 0 0 1 -1-1v-42.86a1 1 0 0 1 1-1h68a1 1 0 0 1 1 1v42.86a1 1 0 0 1 -1 1z" fill="#ff8400" data-original="#000000" style="" class=""/><path xmlns="http://www.w3.org/2000/svg" d="m55.44 70.43h-2.94a1 1 0 0 1 0-2h2.94a1 1 0 0 1 0 2z" fill="#ff8400" data-original="#000000" style="" class=""/><path xmlns="http://www.w3.org/2000/svg" d="m71 27.566h-68a1 1 0 0 1 -.873-1.488l12.313-22a1 1 0 0 1 .872-.512h43.376a1 1 0 0 1 .872.512l12.313 22a1 1 0 0 1 -.873 1.488zm-66.294-2h64.588l-11.194-19.997h-42.2z" fill="#ff8400" data-original="#000000" style="" class=""/></g></svg>
