<?xml version="1.0"?>
<svg xmlns="http://www.w3.org/2000/svg" xmlns:xlink="http://www.w3.org/1999/xlink" xmlns:svgjs="http://svgjs.com/svgjs" version="1.1" width="512" height="512" x="0" y="0" viewBox="0 0 74 74" style="enable-background:new 0 0 512 512" xml:space="preserve" class=""><g><path xmlns="http://www.w3.org/2000/svg" d="m47.891 68.69a1 1 0 0 1 -.556-1.832 17.629 17.629 0 0 0 2.243-1.77 1 1 0 1 1 1.363 1.463 19.507 19.507 0 0 1 -2.5 1.971.993.993 0 0 1 -.55.168z" fill="#ff8400" data-original="#000000" style="" class=""/><path xmlns="http://www.w3.org/2000/svg" d="m30.14 70.76a.98.98 0 0 1 -.351-.064 20.564 20.564 0 0 1 -4.7-36.041 20.566 20.566 0 0 1 30.745 25.051 1 1 0 0 1 -1.828-.812 18.285 18.285 0 0 0 1.574-7.474 18.58 18.58 0 1 0 -25.09 17.4 1 1 0 0 1 -.35 1.937z" fill="#ff8400" data-original="#000000" style="" class=""/><path xmlns="http://www.w3.org/2000/svg" d="m38.429 71.94a1 1 0 0 1 -.067-2 16.757 16.757 0 0 0 2.869-.433 1 1 0 1 1 .477 1.942 18.845 18.845 0 0 1 -3.211.487z" fill="#ff8400" data-original="#000000" style="" class=""/><path xmlns="http://www.w3.org/2000/svg" d="m48.333 36.475a1 1 0 0 1 -1-1v-7.748a1.061 1.061 0 0 0 -1.061-1.06h-18.544a1.061 1.061 0 0 0 -1.061 1.06v7.748a1 1 0 0 1 -2 0v-7.748a3.064 3.064 0 0 1 3.061-3.06h18.544a3.064 3.064 0 0 1 3.061 3.06v7.748a1 1 0 0 1 -1 1z" fill="#ff8400" data-original="#000000" style="" class=""/><path xmlns="http://www.w3.org/2000/svg" d="m45.242 26.667h-16.484a1 1 0 0 1 -1-1v-22.667a1 1 0 0 1 1-1h16.484a1 1 0 0 1 1 1v22.667a1 1 0 0 1 -1 1zm-15.484-2h14.484v-20.667h-14.484z" fill="#ff8400" data-original="#000000" style="" class=""/><path xmlns="http://www.w3.org/2000/svg" d="m40.011 26.667a1 1 0 0 1 -1-1v-22.667a1 1 0 0 1 2 0v22.667a1 1 0 0 1 -1 1z" fill="#ff8400" data-original="#000000" style="" class=""/><path xmlns="http://www.w3.org/2000/svg" d="m33.989 26.667a1 1 0 0 1 -1-1v-22.667a1 1 0 0 1 2 0v22.667a1 1 0 0 1 -1 1z" fill="#ff8400" data-original="#000000" style="" class=""/><path xmlns="http://www.w3.org/2000/svg" d="m43.522 61.4a1 1 0 0 1 -.465-.115l-6.057-3.185-6.057 3.184a1 1 0 0 1 -1.451-1.054l1.157-6.745-4.9-4.777a1 1 0 0 1 .555-1.706l6.771-.984 3.03-6.136a1.041 1.041 0 0 1 1.792 0l3.03 6.136 6.771.984a1 1 0 0 1 .555 1.706l-4.9 4.777 1.157 6.745a1 1 0 0 1 -.986 1.169zm-6.522-5.427a1.012 1.012 0 0 1 .466.114l4.728 2.487-.9-5.266a1 1 0 0 1 .287-.886l3.819-3.729-5.286-.768a1 1 0 0 1 -.753-.547l-2.361-4.791-2.365 4.791a1 1 0 0 1 -.753.547l-5.286.768 3.826 3.729a1 1 0 0 1 .287.886l-.9 5.266 4.728-2.487a1.012 1.012 0 0 1 .463-.114z" fill="#ff8400" data-original="#000000" style="" class=""/></g></svg>
