<?xml version="1.0"?>
<svg xmlns="http://www.w3.org/2000/svg" xmlns:xlink="http://www.w3.org/1999/xlink" xmlns:svgjs="http://svgjs.com/svgjs" version="1.1" width="512" height="512" x="0" y="0" viewBox="0 0 74 74" style="enable-background:new 0 0 512 512" xml:space="preserve" class=""><g><path xmlns="http://www.w3.org/2000/svg" d="m48.44 4.55h-2.94a1 1 0 0 1 0-2h2.94a1 1 0 0 1 0 2z" fill="#ff8400" data-original="#000000" style=""/><path xmlns="http://www.w3.org/2000/svg" d="m43.9 62.96h-13.8a1 1 0 0 1 -1-1v-14.711a34.843 34.843 0 0 1 -13.677-15.959c-3.277-7.537-4.523-16.89-3.7-27.815a1 1 0 0 1 1-.925h15.837a1 1 0 0 1 0 2h-14.908c-.661 10.2.551 18.918 3.605 25.941a32.893 32.893 0 0 0 13.359 15.343 1 1 0 0 1 .484.856v14.27h11.8v-14.27a1 1 0 0 1 .484-.856 32.893 32.893 0 0 0 13.359-15.343c3.054-7.023 4.266-15.746 3.6-25.941h-4.903a1 1 0 0 1 0-2h5.84a1 1 0 0 1 1 .925c.823 10.92-.423 20.278-3.7 27.814a34.84 34.84 0 0 1 -13.68 15.96v14.711a1 1 0 0 1 -1 1z" fill="#ff8400" data-original="#000000" style=""/><path xmlns="http://www.w3.org/2000/svg" d="m38.5 4.55h-2.94a1 1 0 0 1 0-2h2.94a1 1 0 0 1 0 2z" fill="#ff8400" data-original="#000000" style=""/><path xmlns="http://www.w3.org/2000/svg" d="m50.806 71.451h-27.612a1 1 0 0 1 -1-1v-4.495a5.006 5.006 0 0 1 5-5h19.612a5.006 5.006 0 0 1 5 5v4.495a1 1 0 0 1 -1 1zm-26.612-2h25.612v-3.495a3 3 0 0 0 -3-3h-19.612a3 3 0 0 0 -3 3z" fill="#ff8400" data-original="#000000" style=""/><path xmlns="http://www.w3.org/2000/svg" d="m57.66 31.89a1 1 0 0 1 -.053-2c5.486-.3 9.233-3.658 11.137-9.989a32.909 32.909 0 0 0 1.256-8.918h-8.473a1 1 0 0 1 0-2h9.455a1 1 0 0 1 1 .948c.011.211.939 21.136-14.266 21.958z" fill="#ff8400" data-original="#000000" style=""/><path xmlns="http://www.w3.org/2000/svg" d="m16.34 31.89h-.055c-15.205-.823-14.277-21.748-14.266-21.959a1 1 0 0 1 1-.948h9.455a1 1 0 1 1 0 2h-8.474a32.909 32.909 0 0 0 1.256 8.917c1.9 6.331 5.651 9.692 11.137 9.989a1 1 0 0 1 -.053 2z" fill="#ff8400" data-original="#000000" style=""/><path xmlns="http://www.w3.org/2000/svg" d="m43.815 34.477a1 1 0 0 1 -.464-.115l-6.351-3.339-6.351 3.339a1 1 0 0 1 -1.45-1.054l1.213-7.072-5.139-5.007a1 1 0 0 1 .555-1.707l7.1-1.031 3.172-6.433a1.04 1.04 0 0 1 1.792 0l3.176 6.433 7.1 1.031a1 1 0 0 1 .555 1.707l-5.139 5.007 1.216 7.072a1 1 0 0 1 -.986 1.169zm-6.815-5.583a1 1 0 0 1 .465.114l5.022 2.64-.959-5.592a1 1 0 0 1 .287-.885l4.064-3.961-5.614-.81a1 1 0 0 1 -.753-.547l-2.512-5.094-2.512 5.089a1 1 0 0 1 -.753.547l-5.614.815 4.064 3.961a1 1 0 0 1 .287.885l-.959 5.592 5.022-2.64a1 1 0 0 1 .465-.114z" fill="#ff8400" data-original="#000000" style=""/></g></svg>
