<?xml version="1.0"?>
<svg xmlns="http://www.w3.org/2000/svg" xmlns:xlink="http://www.w3.org/1999/xlink" xmlns:svgjs="http://svgjs.com/svgjs" version="1.1" width="512" height="512" x="0" y="0" viewBox="0 0 74 74" style="enable-background:new 0 0 512 512" xml:space="preserve" class=""><g><path xmlns="http://www.w3.org/2000/svg" d="m15.231 52.09a1 1 0 0 1 -.882-.528c-.539-1-.967-1.861-1.349-2.7a1 1 0 0 1 1.82-.83c.363.8.774 1.616 1.291 2.582a1 1 0 0 1 -.88 1.473z" fill="#ff8400" data-original="#000000" style=""/><path xmlns="http://www.w3.org/2000/svg" d="m37 72a.984.984 0 0 1 -.29-.043c-.412-.125-10.169-3.183-18.471-14.289a1 1 0 0 1 1.6-1.2c7.108 9.51 15.499 12.88 17.161 13.475 3.1-1.122 29.74-12.089 27.908-55.458-3.865.075-17.639-.446-27.908-10.093-10.268 9.646-24.032 10.168-27.907 10.093a87.886 87.886 0 0 0 .907 17.457 1 1 0 0 1 -1.975.316 90.686 90.686 0 0 1 -.883-18.858 1 1 0 0 1 1.066-.946c.166.011 16.906.99 28.086-10.161a1 1 0 0 1 1.412 0c11.179 11.15 27.921 10.169 28.086 10.161a1 1 0 0 1 1.066.945c.717 13.891-1.087 33.41-13.758 47.517-7.62 8.49-15.479 10.941-15.81 11.041a.989.989 0 0 1 -.29.043z" fill="#ff8400" data-original="#000000" style=""/><path xmlns="http://www.w3.org/2000/svg" d="m11.35 42.931a1 1 0 0 1 -.951-.691c-.3-.929-.591-1.907-.856-2.9a1 1 0 0 1 1.933-.514c.255.962.533 1.9.825 2.8a1 1 0 0 1 -.641 1.261.985.985 0 0 1 -.31.044z" fill="#ff8400" data-original="#000000" style=""/><path xmlns="http://www.w3.org/2000/svg" d="m37 64.551a1 1 0 0 1 -.418-.092c-8.73-4.025-23.408-15.248-23.582-45.185a1 1 0 0 1 .908-1c5.975-.553 14.729-2.422 22.5-8.179a1 1 0 0 1 1.191 0c7.764 5.757 16.517 7.626 22.492 8.179a1 1 0 0 1 .908 1c-.166 29.938-14.842 41.161-23.576 45.186a1 1 0 0 1 -.423.091zm-21.989-44.38c.443 27.676 13.739 38.329 21.989 42.275 8.254-3.948 21.548-14.6 21.985-42.275a46.842 46.842 0 0 1 -21.985-8.039 46.865 46.865 0 0 1 -21.989 8.039z" fill="#ff8400" data-original="#000000" style=""/><path xmlns="http://www.w3.org/2000/svg" d="m44.645 45.5h-15.29a2.107 2.107 0 0 1 -2.105-2.1v-8.847a2.108 2.108 0 0 1 2.105-2.106h15.29a2.108 2.108 0 0 1 2.1 2.106v8.847a2.107 2.107 0 0 1 -2.1 2.1zm-15.29-11.053a.106.106 0 0 0 -.105.106v8.847a.1.1 0 0 0 .105.1h15.29a.1.1 0 0 0 .1-.1v-8.847a.106.106 0 0 0 -.1-.106z" fill="#ff8400" data-original="#000000" style=""/><path xmlns="http://www.w3.org/2000/svg" d="m42.561 34.447h-11.122a1 1 0 0 1 -1-1v-4.386a6.561 6.561 0 0 1 13.122 0v4.386a1 1 0 0 1 -1 1zm-10.122-2h9.122v-3.386a4.561 4.561 0 0 0 -9.122 0z" fill="#ff8400" data-original="#000000" style=""/><path xmlns="http://www.w3.org/2000/svg" d="m37 40.541a1 1 0 0 1 -1-1v-1.135a1 1 0 0 1 2 0v1.135a1 1 0 0 1 -1 1z" fill="#ff8400" data-original="#000000" style=""/></g></svg>
