<?xml version="1.0" encoding="utf-8"?>
<!-- Generator: Adobe Illustrator 21.1.0, SVG Export Plug-In . SVG Version: 6.00 Build 0)  -->
<svg version="1.1" id="Слой_1" xmlns:svgjs="http://svgjs.com/svgjs"
	 xmlns="http://www.w3.org/2000/svg" xmlns:xlink="http://www.w3.org/1999/xlink" x="0px" y="0px" viewBox="0 0 512 512"
	 style="enable-background:new 0 0 512 512;" xml:space="preserve">
<style type="text/css">
	.st0{fill:#269F2C;}
	.st1{fill:#0B1875;}
</style>
<path class="st0" d="M289.9,292.9l-6.8,8c-5.7-9.4-12.3-18.2-19.7-26.4c13-23.3,9-52.4-9.9-71.3c-25.9-25.9-94.8-26.6-102.6-26.6
	c-4.7,0-8.5,3.8-8.5,8.5c0,7.8,0.7,76.7,26.6,102.6c23.1,23,60.4,23.3,83.8,0.6c7.9,9,14.7,19,20.2,29.6v57.6h17.1v-56.6l13.1-15.2
	c16.4,8.8,36.7,5.7,49.8-7.5c20-20,20.6-67.1,20.6-72.4c0-4.7-3.8-8.5-8.5-8.5c-5.3,0-52.4,0.6-72.4,20.6
	C277.2,251.3,276.1,276,289.9,292.9z M181.1,275.6c-15.5-15.5-20.4-58.4-21.4-81.8c23.4,1,66.3,6,81.8,21.4
	c12.2,12.2,15.8,30.5,9.3,46.4c-12.7-11.9-26.8-22.1-42.1-30.3l-7.6,15.3c14.6,8,28,17.9,40,29.4
	C224.3,292.2,197.6,292.1,181.1,275.6z M304.7,247.9c10.4-10.4,35.8-14.2,51.5-15.3c-1,15.7-4.8,41-15.3,51.5
	c-6.9,6.8-17,9.2-26.2,6.1l24.5-28.6l-13-11.1l-25.1,29.3C294.8,269.6,296.2,256.4,304.7,247.9z"/>
<path class="st1" d="M497.1,203.9l-35.3-4.4c-4.7-17.1-11.5-33.6-20.3-49.1l21.8-28.1c5.3-6.8,4.7-16.5-1.4-22.5l-49.7-49.7
	c-6.1-6.1-15.8-6.7-22.5-1.4l-28.1,21.8c-15.4-8.8-31.9-15.6-49.1-20.3L308.1,15C307,6.4,299.7,0,291.1,0h-70.3
	c-8.6,0-15.9,6.4-16.9,15l-4.4,35.3c-17.1,4.7-33.6,11.5-49.1,20.3l-28.1-21.8c-6.8-5.3-16.5-4.7-22.5,1.4L50.1,99.8
	c-6.1,6.1-6.7,15.8-1.4,22.5l21.8,28.1c-8.8,15.4-15.6,31.9-20.3,49.1L15,203.9C6.4,205,0,212.3,0,220.9v70.3
	c0,8.6,6.4,15.9,15,16.9l35.3,4.4c4.7,17.1,11.5,33.6,20.3,49.1l-21.8,28.1c-5.3,6.8-4.7,16.4,1.4,22.5l49.7,49.7
	c6.1,6.1,15.8,6.7,22.5,1.4l28.1-21.8c15.4,8.8,31.9,15.6,49.1,20.3l4.4,35.3c1.1,8.5,8.3,14.9,16.9,14.9h70.3
	c8.6,0,15.9-6.4,16.9-14.9l4.4-35.3c17.1-4.7,33.6-11.5,49.1-20.3l28.1,21.8c6.8,5.3,16.5,4.7,22.5-1.4l49.7-49.7
	c6.1-6.1,6.7-15.8,1.4-22.5l-21.8-28.1c8.8-15.4,15.6-31.9,20.3-49.1l35.3-4.4c8.5-1.1,14.9-8.3,14.9-16.9v-70.3
	C512,212.3,505.6,205,497.1,203.9z M494.9,291.1l-41.1,5.1c-3.5,0.4-6.4,3-7.2,6.4c-4.7,19.4-12.4,38-22.8,55.1
	c-1.8,3-1.6,6.9,0.6,9.7l25.4,32.6l-49.7,49.7l-32.6-25.4c-2.8-2.2-6.6-2.4-9.7-0.6c-17.1,10.4-35.7,18.1-55.1,22.8
	c-3.4,0.8-6,3.7-6.4,7.2l-5.1,41.1h-70.3l-5.1-41.1c-0.4-3.5-3-6.4-6.4-7.2c-19.4-4.7-38-12.4-55.1-22.8c-3-1.8-6.9-1.6-9.7,0.6
	l-32.7,25.4l-49.7-49.7l25.4-32.6c2.2-2.8,2.4-6.6,0.6-9.7c-10.4-17.1-18.1-35.7-22.8-55.1c-0.8-3.4-3.7-6-7.2-6.4l-41.1-5.1v-70.3
	l41.1-5.1c3.5-0.4,6.4-3,7.2-6.4c4.7-19.4,12.4-38,22.8-55.1c1.8-3,1.6-6.9-0.6-9.7l-25.4-32.7l49.7-49.7l32.7,25.4
	c2.8,2.2,6.7,2.4,9.7,0.6c17.1-10.4,35.7-18.1,55.1-22.8c3.4-0.8,6-3.7,6.4-7.2l5.1-41.1h70.3l5.1,41.1c0.4,3.5,3,6.4,6.4,7.2
	c19.4,4.7,38,12.4,55.1,22.8c3,1.8,6.9,1.6,9.7-0.6l32.7-25.4l49.7,49.7l-25.4,32.7c-2.2,2.8-2.4,6.7-0.6,9.7
	c10.4,17.1,18.1,35.7,22.8,55.1c0.8,3.4,3.7,6,7.2,6.4l41.1,5.1V291.1z"/>
<path class="st1" d="M256,93.9c-89.5,0-162.1,72.6-162.1,162.1S166.5,418.1,256,418.1S418.1,345.5,418.1,256
	C418,166.5,345.5,94,256,93.9z M256,401.1c-80.1,0-145.1-64.9-145.1-145.1s65-145.1,145.1-145.1s145.1,65,145.1,145.1
	C401,336.1,336.1,401,256,401.1z"/>
<path class="st1" d="M247.5,59.7h17.1v17.1h-17.1V59.7z"/>
<path class="st1" d="M111.2,123.3l12.1-12.1l12.1,12.1l-12.1,12.1L111.2,123.3z"/>
<path class="st1" d="M59.7,247.5h17.1v17.1H59.7V247.5z"/>
<path class="st1" d="M111.2,388.8l12.1-12.1l12.1,12.1l-12.1,12.1L111.2,388.8z"/>
<path class="st1" d="M247.5,435.2h17.1v17.1h-17.1V435.2z"/>
<path class="st1" d="M376.7,388.7l12.1-12.1l12.1,12.1l-12.1,12.1L376.7,388.7z"/>
<path class="st1" d="M435.2,247.5h17.1v17.1h-17.1V247.5z"/>
<path class="st1" d="M376.7,123.3l12.1-12.1l12.1,12.1l-12.1,12.1L376.7,123.3z"/>
</svg>
