<?xml version="1.0" encoding="utf-8"?>
<!-- Generator: Adobe Illustrator 21.1.0, SVG Export Plug-In . SVG Version: 6.00 Build 0)  -->
<svg version="1.1" id="Слой_1" xmlns:svgjs="http://svgjs.com/svgjs"
	 xmlns="http://www.w3.org/2000/svg" xmlns:xlink="http://www.w3.org/1999/xlink" x="0px" y="0px" viewBox="0 0 36.2 17.9"
	 style="enable-background:new 0 0 36.2 17.9;" xml:space="preserve">
<style type="text/css">
	.st0{fill:#0B1875;}
	.st1{fill:#FF8400;}
</style>
<g>
	<path class="st0" d="M26.1,5h-1.4V3.6c0-0.2-0.1-0.3-0.3-0.3h-1.7c-0.2,0-0.3,0.1-0.3,0.3V5h-8.9V3.6c0-0.2-0.1-0.3-0.3-0.3h-1.7
		c-0.2,0-0.3,0.1-0.3,0.3V5H9.9C9.7,5,9.6,5.2,9.6,5.3V7c0,0.2,0.1,0.3,0.3,0.3h0.6v9.2c0,0.5,0.4,0.8,0.8,0.8h13.4
		c0.5,0,0.8-0.4,0.8-0.8V7.3h0.6c0.2,0,0.3-0.1,0.3-0.3V5.3C26.4,5.2,26.2,5,26.1,5z M23,3.9h1.1V5H23V3.9z M11.8,3.9h1.1V5h-1.1
		V3.9z M25,16.5c0,0.2-0.1,0.3-0.3,0.3H11.3c-0.2,0-0.3-0.1-0.3-0.3V7.3h14V16.5z M25.8,6.7H10.2V5.6h15.7V6.7z"/>
	<path class="st1" d="M16.2,11.7l1.5,0.7l-0.5,2.3c0,0.1,0,0.3,0.2,0.3c0.1,0.1,0.3,0,0.3-0.1l2.2-2.8c0.1-0.1,0.1-0.2,0.1-0.2
		c0-0.1-0.1-0.2-0.1-0.2l-1.4-0.7l0.7-1.7c0.1-0.1,0-0.3-0.1-0.3c-0.1-0.1-0.3-0.1-0.3,0l-2.5,2.2C16,11.3,16,11.4,16,11.5
		C16,11.6,16.1,11.7,16.2,11.7L16.2,11.7z M18.1,10.3l-0.3,0.8c-0.1,0.1,0,0.3,0.1,0.4l1.4,0.7L18,13.7l0.3-1.3c0-0.1,0-0.3-0.1-0.3
		l-1.3-0.7L18.1,10.3z"/>
	<path class="st1" d="M18,15.9c2.2,0,3.9-1.8,3.9-3.9S20.1,8.1,18,8.1s-3.9,1.8-3.9,3.9C14.1,14.2,15.8,15.9,18,15.9z M18,8.7
		c1.9,0,3.4,1.5,3.4,3.4s-1.5,3.4-3.4,3.4c-1.9,0-3.4-1.5-3.4-3.4C14.6,10.2,16.1,8.7,18,8.7z"/>
	<path class="st0" d="M12.1,9.5h0.6V9h0.6V8.4h-0.6V7.8h-0.6v0.6h-0.6V9h0.6V9.5z"/>
	<path class="st0" d="M22.7,8.4h1.7V9h-1.7V8.4z"/>
	<path class="st0" d="M12.7,2h4.2C17,2.5,17.5,2.8,18,2.8c0.5,0,1-0.3,1.1-0.8h4.2v0.8h0.6V1.7c0-0.2-0.1-0.3-0.3-0.3h-4.5
		c-0.1-0.5-0.6-0.8-1.1-0.8c-0.5,0-1,0.3-1.1,0.8h-4.5c-0.2,0-0.3,0.1-0.3,0.3v1.1h0.6V2z M18,1.1c0.3,0,0.6,0.3,0.6,0.6
		S18.3,2.2,18,2.2c-0.3,0-0.6-0.3-0.6-0.6S17.7,1.1,18,1.1z"/>
</g>
</svg>
