<?xml version="1.0" encoding="utf-8"?>
<!-- Generator: Adobe Illustrator 21.1.0, SVG Export Plug-In . SVG Version: 6.00 Build 0)  -->
<svg version="1.1" id="Слой_1" xmlns:svgjs="http://svgjs.com/svgjs"
	 xmlns="http://www.w3.org/2000/svg" xmlns:xlink="http://www.w3.org/1999/xlink" x="0px" y="0px" viewBox="0 0 36.2 17.9"
	 style="enable-background:new 0 0 36.2 17.9;" xml:space="preserve">
<style type="text/css">
	.st0{fill:#0B1875;}
	.st1{fill:#FF8400;}
</style>
<g>
	<path class="st0" d="M20.8,5c-0.1-0.2-0.3-0.4-0.5-0.4h-7.9c-0.2,0-0.5,0.2-0.5,0.4l-2.1,7.2c0,0.2,0,0.3,0.1,0.5
		c0.1,0.1,0.3,0.2,0.4,0.2H15v0.6h-0.6c-0.2,0-0.3,0.1-0.3,0.3V14h-0.6v0.6h0.6v0.3c0,0.2,0.1,0.3,0.3,0.3H15v0.6h-0.6
		c-0.2,0-0.3,0.1-0.3,0.3v1.1c0,0.2,0.1,0.3,0.3,0.3h3.9c0.2,0,0.3-0.1,0.3-0.3V16c0-0.2-0.1-0.3-0.3-0.3h-0.6v-0.6h0.6
		c0.2,0,0.3-0.1,0.3-0.3v-0.3h0.6V14h-0.6v-0.3c0-0.2-0.1-0.3-0.3-0.3h-0.6v-0.6h4.6c0.2,0,0.3-0.1,0.4-0.2c0.1-0.1,0.1-0.3,0.1-0.5
		L20.8,5z M21.3,8.5h-1.9l-0.2-1.4h1.7L21.3,8.5z M18.8,8.5h-2.2V7.1h2L18.8,8.5z M16.6,6.5V5.1h1.7l0.2,1.4H16.6z M16.1,6.5h-1.9
		l0.2-1.4h1.7V6.5z M16.1,7.1v1.4h-2.2l0.2-1.4H16.1z M13.3,8.5h-1.9l0.4-1.4h1.7L13.3,8.5z M13.2,9L13,10.4h-2.2L11.3,9H13.2z
		 M13.8,9h2.3v1.4h-2.5L13.8,9z M16.1,11v1.4h-2.7l0.2-1.4H16.1z M16.6,11h2.5l0.2,1.4h-2.7V11z M16.6,10.4V9h2.3l0.2,1.4H16.6z
		 M19.4,9h2l0.4,1.4h-2.2L19.4,9z M20.7,6.5h-1.6l-0.2-1.4h1.4L20.7,6.5z M12.4,5.1h1.4l-0.2,1.4H12L12.4,5.1z M10.7,11H13l-0.2,1.4
		h-2.4L10.7,11z M14.7,14.6V14H15v0.6H14.7z M18,16.8h-3.3v-0.6H18V16.8z M18,14v0.6h-0.3V14H18z M17.2,15.7h-1.7v-2.8h1.7V15.7z
		 M19.9,12.4L19.7,11H22l0.4,1.4H19.9z"/>
	<path class="st1" d="M23.6,1.8c-0.9,0-1.7,0.7-1.7,1.7s0.7,1.7,1.7,1.7c0.9,0,1.7-0.7,1.7-1.7C25.2,2.6,24.5,1.8,23.6,1.8z
		 M23.6,4.6c-0.6,0-1.1-0.5-1.1-1.1s0.5-1.1,1.1-1.1c0.6,0,1.1,0.5,1.1,1.1S24.2,4.6,23.6,4.6z"/>
	<path class="st1" d="M23.3,0.7h0.6v0.6h-0.6V0.7z"/>
	<path class="st1" d="M21.4,1.7l0.4-0.4l0.4,0.4l-0.4,0.4L21.4,1.7z"/>
	<path class="st1" d="M20.8,3.2h0.6v0.6h-0.6V3.2z"/>
	<path class="st1" d="M21.4,5.2l0.4-0.4l0.4,0.4l-0.4,0.4L21.4,5.2z"/>
	<path class="st1" d="M23.3,5.7h0.6v0.6h-0.6V5.7z"/>
	<path class="st1" d="M25,5.2l0.4-0.4l0.4,0.4l-0.4,0.4L25,5.2z"/>
	<path class="st1" d="M25.8,3.2h0.6v0.6h-0.6V3.2z"/>
	<path class="st1" d="M25,1.7l0.4-0.4l0.4,0.4l-0.4,0.4L25,1.7z"/>
</g>
</svg>
