<?xml version="1.0" encoding="utf-8"?>
<!-- Generator: Adobe Illustrator 21.1.0, SVG Export Plug-In . SVG Version: 6.00 Build 0)  -->
<svg version="1.1" id="Слой_1" xmlns:svgjs="http://svgjs.com/svgjs"
	 xmlns="http://www.w3.org/2000/svg" xmlns:xlink="http://www.w3.org/1999/xlink" x="0px" y="0px" viewBox="0 0 114 114"
	 style="enable-background:new 0 0 114 114;" xml:space="preserve">
<style type="text/css">
	.st0{fill:#0B1875;}
	.st1{fill:#FF8400;}
</style>
<path class="st0" d="M112.1,0H1.9C0.9,0,0,0.9,0,1.9v49.4c0,1,0.9,1.9,1.9,1.9h47.5V57c0,1,0.9,1.9,1.9,1.9h3.8V82
	c-1.6,0.6-2.9,1.8-3.5,3.5h-7.9v-19c0-3.1-2.6-5.7-5.7-5.7H15.2c-3.1,0-5.7,2.6-5.7,5.7v41.8c0,3.1,2.6,5.7,5.7,5.7H38
	c3.1,0,5.7-2.6,5.7-5.7v-19h7.9c0.8,2.3,2.9,3.8,5.4,3.8s4.6-1.5,5.4-3.8h7.9v19c0,3.1,2.6,5.7,5.7,5.7h22.8c3.1,0,5.7-2.6,5.7-5.7
	V66.5c0-3.1-2.6-5.7-5.7-5.7H76c-3.1,0-5.7,2.6-5.7,5.7v19h-7.9c-0.6-1.6-1.8-2.9-3.5-3.5V58.9h3.8c1,0,1.9-0.9,1.9-1.9v-3.8h47.5
	c1,0,1.9-0.9,1.9-1.9V1.9C114,0.9,113.1,0,112.1,0z M20.9,64.6h11.4v1.9H20.9V64.6z M39.9,108.3c0,1-0.9,1.9-1.9,1.9H15.2
	c-1,0-1.9-0.9-1.9-1.9V66.5c0-1,0.9-1.9,1.9-1.9h1.9v1.9c0,2.1,1.7,3.8,3.8,3.8h11.4c2.1,0,3.8-1.7,3.8-3.8v-1.9H38
	c1,0,1.9,0.9,1.9,1.9V108.3z M81.7,64.6h11.4v1.9H81.7V64.6z M74.1,66.5c0-1,0.9-1.9,1.9-1.9h1.9v1.9c0,2.1,1.7,3.8,3.8,3.8h11.4
	c2.1,0,3.8-1.7,3.8-3.8v-1.9h1.9c1,0,1.9,0.9,1.9,1.9v41.8c0,1-0.9,1.9-1.9,1.9H76c-1,0-1.9-0.9-1.9-1.9V66.5z M57,89.3
	c-1,0-1.9-0.9-1.9-1.9c0-1,0.9-1.9,1.9-1.9s1.9,0.9,1.9,1.9C58.9,88.4,58,89.3,57,89.3z M110.2,15.2H86.9c-0.3-0.6-0.8-1-1.4-1.4
	v-10h24.7V15.2z M86.9,34.2c-0.3-0.6-0.8-1-1.4-1.4V20.4c0.6-0.3,1-0.8,1.4-1.4h23.3v15.2H86.9z M3.8,34.2V19h23.3
	c0.3,0.6,0.8,1,1.4,1.4v12.5c-0.6,0.3-1,0.8-1.4,1.4H3.8z M60.3,34.2c-0.3-0.6-0.8-1-1.4-1.4V20.4c0.6-0.3,1-0.8,1.4-1.4h20.1
	c0.3,0.6,0.8,1,1.4,1.4v12.5c-0.6,0.3-1,0.8-1.4,1.4H60.3z M33.7,34.2c-0.3-0.6-0.8-1-1.4-1.4V20.4c0.6-0.3,1-0.8,1.4-1.4h20.1
	c0.3,0.6,0.8,1,1.4,1.4v12.5c-0.6,0.3-1,0.8-1.4,1.4H33.7z M81.7,13.8c-0.6,0.3-1,0.8-1.4,1.4H60.3c-0.3-0.6-0.8-1-1.4-1.4v-10h22.8
	V13.8z M55.1,13.8c-0.6,0.3-1,0.8-1.4,1.4H33.7c-0.3-0.6-0.8-1-1.4-1.4v-10h22.8V13.8z M32.3,39.4c0.6-0.3,1-0.8,1.4-1.4h20.1
	c0.3,0.6,0.8,1,1.4,1.4v10H32.3V39.4z M58.9,39.4c0.6-0.3,1-0.8,1.4-1.4h20.1c0.3,0.6,0.8,1,1.4,1.4v10H58.9V39.4z M28.5,3.8v10
	c-0.6,0.3-1,0.8-1.4,1.4H3.8V3.8H28.5z M3.8,38h23.3c0.3,0.6,0.8,1,1.4,1.4v10H3.8V38z M60.8,55.1h-7.6v-1.9h7.6V55.1z M85.5,49.4
	v-10c0.6-0.3,1-0.8,1.4-1.4h23.3v11.4H85.5z"/>
<path class="st1" d="M30.4,85.5h-3l4.4-4.4l-2.7-2.7l-7.6,7.6c-0.5,0.5-0.7,1.4-0.4,2.1c0.3,0.7,1,1.2,1.8,1.2h3l-4.4,4.4l2.7,2.7
	l7.6-7.6c0.5-0.5,0.7-1.4,0.4-2.1C31.9,86,31.2,85.5,30.4,85.5z"/>
<path class="st1" d="M83.6,89.3h3l-4.4,4.4l2.7,2.7l7.6-7.6c0.5-0.5,0.7-1.4,0.4-2.1c-0.3-0.7-1-1.2-1.8-1.2h-3l4.4-4.4l-2.7-2.7
	l-7.6,7.6c-0.5,0.5-0.7,1.4-0.4,2.1S82.8,89.3,83.6,89.3z"/>
</svg>
