<?xml version="1.0" encoding="utf-8"?>
<!-- Generator: Adobe Illustrator 21.1.0, SVG Export Plug-In . SVG Version: 6.00 Build 0)  -->
<svg version="1.1" id="Слой_1" xmlns:svgjs="http://svgjs.com/svgjs"
	 xmlns="http://www.w3.org/2000/svg" xmlns:xlink="http://www.w3.org/1999/xlink" x="0px" y="0px" viewBox="0 0 36.2 17.9"
	 style="enable-background:new 0 0 36.2 17.9;" xml:space="preserve">
<style type="text/css">
	.st0{fill:#269F2C;}
	.st1{fill:#0B1875;}
</style>
<g>
	<path class="st0" d="M19,10.2l-0.2,0.3c-0.2-0.3-0.4-0.6-0.6-0.9c0.4-0.8,0.3-1.7-0.3-2.3c-0.9-0.9-3.1-0.9-3.4-0.9
		c-0.2,0-0.3,0.1-0.3,0.3c0,0.3,0,2.5,0.9,3.4c0.8,0.8,2,0.8,2.8,0c0.3,0.3,0.5,0.6,0.7,1v1.9H19V11l0.4-0.5
		c0.5,0.3,1.2,0.2,1.6-0.2c0.7-0.7,0.7-2.2,0.7-2.4c0-0.2-0.1-0.3-0.3-0.3c-0.2,0-1.7,0-2.4,0.7C18.6,8.8,18.5,9.6,19,10.2z
		 M15.4,9.6c-0.5-0.5-0.7-1.9-0.7-2.7c0.8,0,2.2,0.2,2.7,0.7c0.4,0.4,0.5,1,0.3,1.5c-0.4-0.4-0.9-0.7-1.4-1l-0.3,0.5
		c0.5,0.3,0.9,0.6,1.3,1C16.8,10.2,16,10.1,15.4,9.6z M19.5,8.7c0.3-0.3,1.2-0.5,1.7-0.5c0,0.5-0.2,1.3-0.5,1.7
		c-0.2,0.2-0.6,0.3-0.9,0.2l0.8-0.9l-0.4-0.4l-0.8,1C19.2,9.4,19.2,9,19.5,8.7z"/>
	<path class="st1" d="M25.8,7.2l-1.2-0.1C24.5,6.5,24.3,6,24,5.5l0.7-0.9c0.2-0.2,0.2-0.5,0-0.7L23,2.2c-0.2-0.2-0.5-0.2-0.7,0
		l-0.9,0.7c-0.5-0.3-1-0.5-1.6-0.7L19.6,1c0-0.3-0.3-0.5-0.6-0.5h-2.3c-0.3,0-0.5,0.2-0.6,0.5L16,2.2c-0.6,0.2-1.1,0.4-1.6,0.7
		l-0.9-0.7c-0.2-0.2-0.5-0.2-0.7,0l-1.6,1.6c-0.2,0.2-0.2,0.5,0,0.7l0.7,0.9c-0.3,0.5-0.5,1-0.7,1.6L10,7.2c-0.3,0-0.5,0.3-0.5,0.6
		v2.3c0,0.3,0.2,0.5,0.5,0.6l1.2,0.1c0.2,0.6,0.4,1.1,0.7,1.6l-0.7,0.9c-0.2,0.2-0.2,0.5,0,0.7l1.6,1.6c0.2,0.2,0.5,0.2,0.7,0
		l0.9-0.7c0.5,0.3,1,0.5,1.6,0.7l0.1,1.2c0,0.3,0.3,0.5,0.6,0.5H19c0.3,0,0.5-0.2,0.6-0.5l0.1-1.2c0.6-0.2,1.1-0.4,1.6-0.7l0.9,0.7
		c0.2,0.2,0.5,0.2,0.7,0l1.6-1.6c0.2-0.2,0.2-0.5,0-0.7L24,12.4c0.3-0.5,0.5-1,0.7-1.6l1.2-0.1c0.3,0,0.5-0.3,0.5-0.6V7.8
		C26.3,7.5,26.1,7.3,25.8,7.2z M25.7,10.1l-1.3,0.2c-0.1,0-0.2,0.1-0.2,0.2c-0.2,0.6-0.4,1.2-0.7,1.8c-0.1,0.1-0.1,0.2,0,0.3
		l0.8,1.1l-1.6,1.6l-1.1-0.8c-0.1-0.1-0.2-0.1-0.3,0c-0.6,0.3-1.2,0.6-1.8,0.7c-0.1,0-0.2,0.1-0.2,0.2L19,16.8h-2.3l-0.2-1.3
		c0-0.1-0.1-0.2-0.2-0.2c-0.6-0.2-1.2-0.4-1.8-0.7c-0.1-0.1-0.2-0.1-0.3,0l-1.1,0.8l-1.6-1.6l0.8-1.1c0.1-0.1,0.1-0.2,0-0.3
		c-0.3-0.6-0.6-1.2-0.7-1.8c0-0.1-0.1-0.2-0.2-0.2L10,10.1V7.8l1.3-0.2c0.1,0,0.2-0.1,0.2-0.2c0.2-0.6,0.4-1.2,0.7-1.8
		c0.1-0.1,0.1-0.2,0-0.3l-0.8-1.1l1.6-1.6l1.1,0.8c0.1,0.1,0.2,0.1,0.3,0c0.6-0.3,1.2-0.6,1.8-0.7c0.1,0,0.2-0.1,0.2-0.2l0.2-1.3H19
		l0.2,1.3c0,0.1,0.1,0.2,0.2,0.2c0.6,0.2,1.2,0.4,1.8,0.7c0.1,0.1,0.2,0.1,0.3,0l1.1-0.8l1.6,1.6l-0.8,1.1c-0.1,0.1-0.1,0.2,0,0.3
		c0.3,0.6,0.6,1.2,0.7,1.8c0,0.1,0.1,0.2,0.2,0.2l1.3,0.2V10.1z"/>
	<path class="st1" d="M17.9,3.6c-2.9,0-5.3,2.4-5.3,5.3s2.4,5.3,5.3,5.3s5.3-2.4,5.3-5.3C23.2,6,20.8,3.6,17.9,3.6z M17.9,13.7
		c-2.6,0-4.8-2.1-4.8-4.8s2.1-4.8,4.8-4.8s4.8,2.1,4.8,4.8C22.6,11.6,20.5,13.7,17.9,13.7z"/>
	<path class="st1" d="M17.6,2.5h0.6v0.6h-0.6V2.5z"/>
	<path class="st1" d="M13.1,4.6l0.4-0.4l0.4,0.4L13.5,5L13.1,4.6z"/>
	<path class="st1" d="M11.4,8.7H12v0.6h-0.6V8.7z"/>
	<path class="st1" d="M13.1,13.3l0.4-0.4l0.4,0.4l-0.4,0.4L13.1,13.3z"/>
	<path class="st1" d="M17.6,14.9h0.6v0.6h-0.6V14.9z"/>
	<path class="st1" d="M21.8,13.3l0.4-0.4l0.4,0.4l-0.4,0.4L21.8,13.3z"/>
	<path class="st1" d="M23.8,8.7h0.6v0.6h-0.6V8.7z"/>
	<path class="st1" d="M21.8,4.6l0.4-0.4l0.4,0.4L22.2,5L21.8,4.6z"/>
</g>
</svg>
