<?xml version="1.0" encoding="utf-8"?>
<!-- Generator: Adobe Illustrator 21.1.0, SVG Export Plug-In . SVG Version: 6.00 Build 0)  -->
<svg version="1.1" id="Слой_1" xmlns:svgjs="http://svgjs.com/svgjs"
	 xmlns="http://www.w3.org/2000/svg" xmlns:xlink="http://www.w3.org/1999/xlink" x="0px" y="0px" viewBox="0 0 512 512"
	 style="enable-background:new 0 0 512 512;" xml:space="preserve">
<style type="text/css">
	.st0{fill:#0B1875;}
	.st1{fill:#269F2C;}
</style>
<path class="st0" d="M316.5,394v-44.3c-0.1-51.8-42.1-93.9-93.9-93.9v-47.7l26.1-26.1c23.8,17.8,57,15.4,78-5.6
	c25.9-25.9,26.6-94.9,26.6-102.6c0-4.7-3.8-8.5-8.5-8.5c-7.8,0-76.7,0.7-102.6,26.6c-21,21-23.3,54.2-5.6,78l-26.8,26.8L166,153.1
	c27.7-34,25.2-83.4-5.7-114.4C122,0.4,13.9,0,9.4,0C4.6,0,0.8,3.8,0.8,8.5c0,4.6,0.4,112.6,38.7,150.9c31,31,80.4,33.4,114.4,5.7
	l51.5,51.5v39.2c-51.8,0.1-93.8,42.1-93.9,93.9V394c-11.8,4.1-18.8,16.2-16.7,28.4c2.1,12.3,12.8,21.2,25.2,21.2h25.6v42.7
	c0,14.1,11.5,25.6,25.6,25.6c14.1,0,25.6-11.5,25.6-25.6v-42.7h34.1v42.7c0,14.1,11.5,25.6,25.6,25.6c14.1,0,25.6-11.5,25.6-25.6
	v-42.7h25.6c12.5,0,23.1-8.9,25.2-21.2C335.3,410.2,328.2,398.2,316.5,394z M241.7,134.3c0-11.3,4.5-22.2,12.5-30.2
	c15.5-15.5,58.4-20.4,81.8-21.4c-1,23.4-6,66.3-21.4,81.8c-14.3,14.3-36.8,16.6-53.7,5.4l16.4-16.4h30.7v-17.1h-13.7l19.6-19.6
	l-12.1-12.1l-19.5,19.6v-13.5h-17.1v30.6l-16.4,16.4C244.1,150.8,241.7,142.7,241.7,134.3z M51.6,147.4C24,119.8,19,43.2,18.1,17.3
	c26,0.9,102.5,5.9,130.1,33.5c24.3,24.4,26.7,63,5.6,90.1L113,100.1l15-37.5l-15.9-6.3L99.9,87l-25-25L62.8,74.1l45.2,45.2H77.4
	v17.1h47.7l16.7,16.7C114.6,174.1,76,171.7,51.6,147.4z M128.6,349.8c0.1-42.4,34.4-76.8,76.8-76.8h17.1
	c42.4,0.1,76.8,34.4,76.8,76.8v42.7H128.6V349.8z M179.9,486.4c0,4.7-3.8,8.5-8.5,8.5c-4.7,0-8.5-3.8-8.5-8.5v-42.7h17.1V486.4z
	 M265.2,486.4c0,4.7-3.8,8.5-8.5,8.5s-8.5-3.8-8.5-8.5v-42.7h17.1V486.4z M307.9,426.6H120.1c-4.7,0-8.5-3.8-8.5-8.5
	s3.8-8.5,8.5-8.5h187.8c4.7,0,8.5,3.8,8.5,8.5S312.6,426.6,307.9,426.6z"/>
<path class="st1" d="M162.8,358.3h102.4v17.1H162.8V358.3z"/>
<path class="st1" d="M171.3,324.2h85.4v17.1h-85.4V324.2z"/>
</svg>
