<?xml version="1.0" encoding="utf-8"?>
<!-- Generator: Adobe Illustrator 21.1.0, SVG Export Plug-In . SVG Version: 6.00 Build 0)  -->
<svg version="1.1" id="Слой_1" xmlns:svgjs="http://svgjs.com/svgjs"
	 xmlns="http://www.w3.org/2000/svg" xmlns:xlink="http://www.w3.org/1999/xlink" x="0px" y="0px" viewBox="0 0 36.2 17.9"
	 style="enable-background:new 0 0 36.2 17.9;" xml:space="preserve">
<style type="text/css">
	.st0{fill:#0B1875;}
	.st1{fill:#FF8400;}
</style>
<path class="st0" d="M25.1,0.6H11c-0.1,0-0.2,0.1-0.2,0.3v7.3c0,0.2,0.1,0.3,0.2,0.3h6.1V9c0,0.2,0.1,0.3,0.2,0.3h0.5v3.4
	c-0.2,0.1-0.4,0.3-0.4,0.5h-1v-2.8c0-0.5-0.3-0.8-0.7-0.8h-2.9c-0.4,0-0.7,0.4-0.7,0.8v6.2c0,0.5,0.3,0.8,0.7,0.8h2.9
	c0.4,0,0.7-0.4,0.7-0.8v-2.8h1c0.1,0.3,0.4,0.6,0.7,0.6c0.3,0,0.6-0.2,0.7-0.6h1v2.8c0,0.5,0.3,0.8,0.7,0.8h2.9
	c0.4,0,0.7-0.4,0.7-0.8v-6.2c0-0.5-0.3-0.8-0.7-0.8h-2.9c-0.4,0-0.7,0.4-0.7,0.8v2.8h-1c-0.1-0.2-0.2-0.4-0.4-0.5V9.3h0.5
	C18.9,9.3,19,9.1,19,9V8.4h6.1c0.1,0,0.2-0.1,0.2-0.3V0.9C25.4,0.7,25.3,0.6,25.1,0.6z M13.5,10.1h1.5v0.3h-1.5V10.1z M15.9,16.5
	c0,0.2-0.1,0.3-0.2,0.3h-2.9c-0.1,0-0.2-0.1-0.2-0.3v-6.2c0-0.2,0.1-0.3,0.2-0.3H13v0.3c0,0.3,0.2,0.6,0.5,0.6h1.5
	c0.3,0,0.5-0.3,0.5-0.6v-0.3h0.2c0.1,0,0.2,0.1,0.2,0.3V16.5z M21.2,10.1h1.5v0.3h-1.5V10.1z M20.3,10.4c0-0.2,0.1-0.3,0.2-0.3h0.2
	v0.3c0,0.3,0.2,0.6,0.5,0.6h1.5c0.3,0,0.5-0.3,0.5-0.6v-0.3h0.2c0.1,0,0.2,0.1,0.2,0.3v6.2c0,0.2-0.1,0.3-0.2,0.3h-2.9
	c-0.1,0-0.2-0.1-0.2-0.3V10.4z M18.1,13.7c-0.1,0-0.2-0.1-0.2-0.3c0-0.2,0.1-0.3,0.2-0.3c0.1,0,0.2,0.1,0.2,0.3
	C18.3,13.6,18.2,13.7,18.1,13.7z M24.9,2.8h-3c0-0.1-0.1-0.2-0.2-0.2V1.2h3.2V2.8z M21.9,5.6c0-0.1-0.1-0.2-0.2-0.2V3.6
	c0.1,0,0.1-0.1,0.2-0.2h3v2.2H21.9z M11.3,5.6V3.4h3c0,0.1,0.1,0.2,0.2,0.2v1.8c-0.1,0-0.1,0.1-0.2,0.2H11.3z M18.5,5.6
	c0-0.1-0.1-0.2-0.2-0.2V3.6c0.1,0,0.1-0.1,0.2-0.2h2.6c0,0.1,0.1,0.2,0.2,0.2v1.8c-0.1,0-0.1,0.1-0.2,0.2H18.5z M15.1,5.6
	c0-0.1-0.1-0.2-0.2-0.2V3.6c0.1,0,0.1-0.1,0.2-0.2h2.6c0,0.1,0.1,0.2,0.2,0.2v1.8c-0.1,0-0.1,0.1-0.2,0.2H15.1z M21.2,2.6
	c-0.1,0-0.1,0.1-0.2,0.2h-2.6c0-0.1-0.1-0.2-0.2-0.2V1.2h2.9V2.6z M17.8,2.6c-0.1,0-0.1,0.1-0.2,0.2h-2.6c0-0.1-0.1-0.2-0.2-0.2V1.2
	h2.9V2.6z M14.9,6.4c0.1,0,0.1-0.1,0.2-0.2h2.6c0,0.1,0.1,0.2,0.2,0.2v1.5h-2.9V6.4z M18.3,6.4c0.1,0,0.1-0.1,0.2-0.2h2.6
	c0,0.1,0.1,0.2,0.2,0.2v1.5h-2.9V6.4z M14.4,1.2v1.5c-0.1,0-0.1,0.1-0.2,0.2h-3V1.2H14.4z M11.3,6.2h3c0,0.1,0.1,0.2,0.2,0.2v1.5
	h-3.2V6.2z M18.6,8.7h-1V8.4h1V8.7z M21.7,7.9V6.4c0.1,0,0.1-0.1,0.2-0.2h3v1.7H21.7z"/>
<path class="st1" d="M14.7,13.2h-0.4l0.6-0.6l-0.3-0.4l-1,1.1c-0.1,0.1-0.1,0.2-0.1,0.3c0,0.1,0.1,0.2,0.2,0.2h0.4l-0.6,0.6l0.3,0.4
	l1-1.1c0.1-0.1,0.1-0.2,0.1-0.3C14.9,13.3,14.8,13.2,14.7,13.2z"/>
<path class="st1" d="M21.5,13.7h0.4l-0.6,0.6l0.3,0.4l1-1.1c0.1-0.1,0.1-0.2,0.1-0.3s-0.1-0.2-0.2-0.2h-0.4l0.6-0.6l-0.3-0.4l-1,1.1
	c-0.1,0.1-0.1,0.2-0.1,0.3C21.3,13.7,21.4,13.7,21.5,13.7z"/>
</svg>
