<?xml version="1.0" encoding="utf-8"?>
<!-- Generator: Adobe Illustrator 21.1.0, SVG Export Plug-In . SVG Version: 6.00 Build 0)  -->
<svg version="1.1" id="Слой_1" xmlns:svgjs="http://svgjs.com/svgjs"
	 xmlns="http://www.w3.org/2000/svg" xmlns:xlink="http://www.w3.org/1999/xlink" x="0px" y="0px" viewBox="0 0 36.2 17.9"
	 style="enable-background:new 0 0 36.2 17.9;" xml:space="preserve">
<style type="text/css">
	.st0{fill:#0B1875;}
	.st1{fill:#269F2C;}
</style>
<g>
	<path class="st0" d="M22.9,13.5v-1.5c0-1.7-1.4-3.1-3.1-3.1V7.4l0.9-0.9c0.8,0.6,1.9,0.5,2.6-0.2C24,5.5,24.1,3.3,24.1,3
		c0-0.2-0.1-0.3-0.3-0.3c-0.3,0-2.5,0-3.4,0.9c-0.7,0.7-0.8,1.8-0.2,2.6L19.4,7l-1.4-1.4c0.9-1.1,0.8-2.7-0.2-3.8
		c-1.3-1.3-4.8-1.3-5-1.3c-0.2,0-0.3,0.1-0.3,0.3c0,0.2,0,3.7,1.3,5c1,1,2.6,1.1,3.8,0.2l1.7,1.7V9c-1.7,0-3.1,1.4-3.1,3.1v1.5
		c-0.4,0.1-0.6,0.5-0.5,0.9c0.1,0.4,0.4,0.7,0.8,0.7h0.8v1.4c0,0.5,0.4,0.8,0.8,0.8c0.5,0,0.8-0.4,0.8-0.8v-1.4h1.1v1.4
		c0,0.5,0.4,0.8,0.8,0.8c0.5,0,0.8-0.4,0.8-0.8v-1.4h0.8c0.4,0,0.8-0.3,0.8-0.7C23.5,14,23.2,13.6,22.9,13.5z M20.4,5
		c0-0.4,0.1-0.7,0.4-1c0.5-0.5,1.9-0.7,2.7-0.7c0,0.8-0.2,2.2-0.7,2.7c-0.5,0.5-1.2,0.5-1.8,0.2l0.5-0.5h1V5.1h-0.4l0.6-0.6L22.4,4
		l-0.6,0.6V4.2h-0.6v1l-0.5,0.5C20.5,5.5,20.4,5.3,20.4,5z M14.2,5.4c-0.9-0.9-1.1-3.4-1.1-4.3c0.9,0,3.4,0.2,4.3,1.1
		c0.8,0.8,0.9,2.1,0.2,3l-1.3-1.3l0.5-1.2l-0.5-0.2l-0.4,1l-0.8-0.8L14.5,3L16,4.5h-1v0.6h1.6l0.5,0.5C16.2,6.3,15,6.2,14.2,5.4z
		 M16.7,12.1c0-1.4,1.1-2.5,2.5-2.5h0.6c1.4,0,2.5,1.1,2.5,2.5v1.4h-5.6V12.1z M18.4,16.5c0,0.2-0.1,0.3-0.3,0.3s-0.3-0.1-0.3-0.3
		v-1.4h0.6V16.5z M21.2,16.5c0,0.2-0.1,0.3-0.3,0.3c-0.2,0-0.3-0.1-0.3-0.3v-1.4h0.6V16.5z M22.6,14.6h-6.2c-0.2,0-0.3-0.1-0.3-0.3
		c0-0.2,0.1-0.3,0.3-0.3h6.2c0.2,0,0.3,0.1,0.3,0.3C22.9,14.4,22.7,14.6,22.6,14.6z"/>
	<path class="st1" d="M17.8,12.2h3.4v0.6h-3.4V12.2z"/>
	<path class="st1" d="M18.1,11h2.8v0.6h-2.8V11z"/>
</g>
</svg>
