<?xml version="1.0" encoding="utf-8"?>
<!-- Generator: Adobe Illustrator 21.1.0, SVG Export Plug-In . SVG Version: 6.00 Build 0)  -->
<svg version="1.1" id="Слой_1" xmlns:svgjs="http://svgjs.com/svgjs"
	 xmlns="http://www.w3.org/2000/svg" xmlns:xlink="http://www.w3.org/1999/xlink" x="0px" y="0px" viewBox="0 0 512 512"
	 style="enable-background:new 0 0 512 512;" xml:space="preserve">
<style type="text/css">
	.st0{fill:#0B1875;}
	.st1{fill:#FF8400;}
</style>
<path class="st0" d="M503.5,137.6h-42.7V94.9c0-4.7-3.8-8.5-8.5-8.5h-51.2c-4.7,0-8.5,3.8-8.5,8.5v42.7H119.5V94.9
	c0-4.7-3.8-8.5-8.5-8.5H59.7c-4.7,0-8.5,3.8-8.5,8.5v42.7H8.5c-4.7,0-8.5,3.8-8.5,8.5v51.2c0,4.7,3.8,8.5,8.5,8.5h17.1v281.6
	c0,14.1,11.5,25.6,25.6,25.6h409.6c14.1,0,25.6-11.5,25.6-25.6V205.9h17.1c4.7,0,8.5-3.8,8.5-8.5v-51.2
	C512,141.4,508.2,137.6,503.5,137.6z M409.6,103.5h34.1v34.1h-34.1V103.5z M68.3,103.5h34.1v34.1H68.3V103.5z M469.3,487.5
	c0,4.7-3.8,8.5-8.5,8.5H51.2c-4.7,0-8.5-3.8-8.5-8.5V205.9h426.7V487.5z M494.9,188.8H17.1v-34.1h477.9V188.8z"/>
<path class="st1" d="M201,341.5l45.2,22.6l-15.6,70.3c-0.9,3.9,1.1,7.8,4.6,9.6c3.6,1.7,7.9,0.7,10.4-2.4l68.3-85.3
	c1.6-2,2.2-4.6,1.7-7.2c-0.6-2.5-2.2-4.6-4.5-5.8l-44-22l22.4-52.3c1.6-3.7,0.4-7.9-2.9-10.3c-3.2-2.3-7.7-2.1-10.7,0.5l-76.8,68.3
	c-2.1,1.9-3.2,4.7-2.8,7.5C196.7,337.8,198.4,340.3,201,341.5L201,341.5z M258.7,297.4L248.2,322c-1.8,4.2,0,9,4,11l41.8,20.9
	l-38.7,48.4l9.1-40.9c0.8-3.8-1-7.7-4.5-9.5l-39.9-20L258.7,297.4z"/>
<path class="st1" d="M256,470.4c66,0,119.5-53.5,119.5-119.5S322,231.5,256,231.5s-119.5,53.5-119.5,119.5
	C136.6,416.9,190.1,470.3,256,470.4z M256,248.5c56.6,0,102.4,45.8,102.4,102.4S312.6,453.3,256,453.3s-102.4-45.8-102.4-102.4
	C153.7,294.4,199.5,248.6,256,248.5z"/>
<path class="st0" d="M76.8,274.1h17.1v-17.1h17.1V240H93.9v-17.1H76.8V240H59.7v17.1h17.1V274.1z"/>
<path class="st0" d="M401.1,240h51.2v17.1h-51.2V240z"/>
<path class="st0" d="M93.9,43.7h129.2c3.8,15.1,17.4,25.6,32.9,25.6c15.5,0,29.1-10.5,32.9-25.6h129.2v25.6h17.1V35.2
	c0-4.7-3.8-8.5-8.5-8.5H288.9C285.1,11.6,271.5,1.1,256,1.1c-15.5,0-29.1,10.5-32.9,25.6H85.3c-4.7,0-8.5,3.8-8.5,8.5v34.1h17.1
	V43.7z M256,18.1c9.4,0,17.1,7.6,17.1,17.1s-7.6,17.1-17.1,17.1c-9.4,0-17.1-7.6-17.1-17.1S246.6,18.1,256,18.1z"/>
</svg>
