<?xml version="1.0" encoding="utf-8"?>
<!-- Generator: Adobe Illustrator 21.1.0, SVG Export Plug-In . SVG Version: 6.00 Build 0)  -->
<svg version="1.1" id="Слой_1" xmlns:svgjs="http://svgjs.com/svgjs"
	 xmlns="http://www.w3.org/2000/svg" xmlns:xlink="http://www.w3.org/1999/xlink" x="0px" y="0px" viewBox="0 0 512 512"
	 style="enable-background:new 0 0 512 512;" xml:space="preserve">
<style type="text/css">
	.st0{fill:#FF8400;}
	.st1{fill:#0B1875;}
</style>
<path class="st0" d="M384.4,204.8c23.6,0,42.7-19.1,42.7-42.7c0-23.6-19.1-42.7-42.7-42.7c-23.6,0-42.7,19.1-42.7,42.7
	C341.8,185.7,360.9,204.8,384.4,204.8z M384.4,136.5c14.1,0,25.6,11.5,25.6,25.6c0,14.1-11.5,25.6-25.6,25.6
	c-14.1,0-25.6-11.5-25.6-25.6C358.8,148,370.3,136.5,384.4,136.5z"/>
<path class="st0" d="M375.9,76.8H393v17.1h-17.1V76.8z"/>
<path class="st0" d="M318,107.8l12.1-12.1l12.1,12.1l-12.1,12.1L318,107.8z"/>
<path class="st0" d="M299.1,153.6h17.1v17.1h-17.1V153.6z"/>
<path class="st0" d="M318,216.4l12.1-12.1l12.1,12.1l-12.1,12.1L318,216.4z"/>
<path class="st0" d="M375.9,230.4H393v17.1h-17.1V230.4z"/>
<path class="st0" d="M426.7,216.4l12.1-12.1l12.1,12.1l-12.1,12.1L426.7,216.4z"/>
<path class="st0" d="M452.7,153.6h17.1v17.1h-17.1V153.6z"/>
<path class="st0" d="M426.7,107.8l12.1-12.1l12.1,12.1l-12.1,12.1L426.7,107.8z"/>
<path class="st1" d="M281,210.2c-1.3-3.3-4.4-5.4-7.9-5.4H68.3c-3.5,0-6.7,2.2-8,5.4L0.6,363.8c-1,2.6-0.7,5.6,0.9,7.9
	s4.2,3.7,7,3.7h17.1v128c0,4.7,3.8,8.5,8.5,8.5h273.1c4.7,0,8.5-3.8,8.5-8.5v-128h17.1c2.8,0,5.4-1.4,7-3.7c1.6-2.3,1.9-5.3,0.9-7.9
	L281,210.2z M145.1,494.9v-68.3h51.2v68.3H145.1z M298.7,494.9h-85.3v-76.8c0-4.7-3.8-8.5-8.5-8.5h-68.3c-4.7,0-8.5,3.8-8.5,8.5
	v76.8H42.7V375.5h256V494.9z M21,358.4l53.1-136.5h193.1l53.1,136.5H21z"/>
<path class="st1" d="M248,238.9H93.3c-7.4,0-13.9,4.8-16.2,11.8l-22,68.3c-1.7,5.2-0.8,10.9,2.4,15.3c3.2,4.4,8.3,7,13.8,7H270
	c5.4,0,10.6-2.6,13.8-7c3.2-4.4,4.1-10.1,2.4-15.3l-22-68.3C261.9,243.7,255.4,239,248,238.9z M248,256l8.2,25.6h-27.4l-5.1-25.6
	H248z M162.1,298.7v25.6h-40.8l5.1-25.6H162.1z M129.9,281.6L135,256h27.1v25.6H129.9z M179.2,298.7h35.7l5.1,25.6h-40.8V298.7z
	 M179.2,281.6V256h27.1l5.1,25.6H179.2z M117.6,256l-5.1,25.6H85.1l8.3-25.6H117.6z M71.3,324.3l8.2-25.6h29.5l-5.1,25.6H71.3z
	 M237.4,324.3l-5.1-25.6h29.5l8.2,25.6H237.4z"/>
<path class="st1" d="M238.9,460.8h34.1c4.7,0,8.5-3.8,8.5-8.5v-34.1c0-4.7-3.8-8.5-8.5-8.5h-34.1c-4.7,0-8.5,3.8-8.5,8.5v34.1
	C230.4,457,234.2,460.8,238.9,460.8z M247.5,426.7h17.1v17.1h-17.1V426.7z"/>
<path class="st1" d="M68.3,460.8h34.1c4.7,0,8.5-3.8,8.5-8.5v-34.1c0-4.7-3.8-8.5-8.5-8.5H68.3c-4.7,0-8.5,3.8-8.5,8.5v34.1
	C59.7,457,63.6,460.8,68.3,460.8z M76.8,426.7h17.1v17.1H76.8V426.7z"/>
<path class="st1" d="M85.3,145.1h76.8c13.3,0,25.4-7.8,31-19.9c5.6-12.1,3.6-26.3-5.1-36.4s-22.4-14.3-35.2-10.7
	c-3.3-15.5-16.9-26.6-32.7-26.9S90.3,61.5,86.4,76.8C67.6,76.5,52,91.5,51.7,110.4C51.4,129.3,66.5,144.8,85.3,145.1z M85.3,93.9
	c2,0,3.9,0.4,5.8,1.1c2.7,1,5.7,0.5,8-1.2c2.3-1.7,3.6-4.5,3.4-7.3c0-0.2-0.1-0.9-0.1-1.1c-0.1-6.8,3.8-13.1,10-15.9
	c6.2-2.8,13.5-1.7,18.5,2.9c5,4.6,6.9,11.8,4.6,18.2c-1.2,3.8,0.3,7.9,3.7,9.9s7.8,1.5,10.5-1.4c3.2-3.4,7.6-5.3,12.3-5.3
	c9.4,0,17.1,7.6,17.1,17.1c0,9.4-7.6,17.1-17.1,17.1H85.3c-9.4,0-17.1-7.6-17.1-17.1C68.3,101.5,75.9,93.9,85.3,93.9z"/>
<path class="st1" d="M485.9,381c-1.3-3.3-4.4-5.5-8-5.5h-85.3c-3.6,0-6.7,2.2-8,5.5l-25.6,68.3c-1,2.6-0.6,5.6,1,7.9
	c1.6,2.3,4.2,3.7,7,3.7h42.7v8.5h-17.1v17.1h17.1v8.5h-17.1V512h85.3v-17.1h-17.1v-8.5h17.1v-17.1h-17.1v-8.5h42.7
	c2.8,0,5.4-1.4,7-3.7c1.6-2.3,2-5.2,1-7.9L485.9,381z M478.3,409.6h-14.3l-2.1-17.1h10L478.3,409.6z M419.3,443.7l2.1-17.1H449
	l2.1,17.1H419.3z M423.5,409.6l2.1-17.1h19.1l2.1,17.1H423.5z M398.4,392.5h10l-2.1,17.1H392L398.4,392.5z M385.6,426.7h18.5
	l-2.1,17.1h-22.8L385.6,426.7z M443.7,494.9h-17.1v-34.1h17.1V494.9z M468.3,443.7l-2.1-17.1h18.5l6.4,17.1H468.3z"/>
</svg>
