<?xml version="1.0" encoding="utf-8"?>
<!-- Generator: Adobe Illustrator 21.1.0, SVG Export Plug-In . SVG Version: 6.00 Build 0)  -->
<svg version="1.1" id="Слой_1" xmlns:svgjs="http://svgjs.com/svgjs"
	 xmlns="http://www.w3.org/2000/svg" xmlns:xlink="http://www.w3.org/1999/xlink" x="0px" y="0px" viewBox="0 0 36.2 17.9"
	 style="enable-background:new 0 0 36.2 17.9;" xml:space="preserve">
<style type="text/css">
	.st0{fill:#FF8400;}
	.st1{fill:#0B1875;}
</style>
<g>
	<path class="st0" d="M22.9,6.2c0.9,0,1.6-0.7,1.6-1.6c0-0.9-0.7-1.6-1.6-1.6c-0.9,0-1.6,0.7-1.6,1.6C21.3,5.5,22,6.2,22.9,6.2z
		 M22.9,3.7c0.5,0,0.9,0.4,0.9,0.9c0,0.5-0.4,0.9-0.9,0.9c-0.5,0-0.9-0.4-0.9-0.9C22,4.1,22.4,3.7,22.9,3.7z"/>
	<path class="st0" d="M22.6,1.5h0.6v0.6h-0.6V1.5z"/>
	<path class="st0" d="M20.5,2.6l0.4-0.4l0.4,0.4l-0.4,0.4L20.5,2.6z"/>
	<path class="st0" d="M19.8,4.3h0.6v0.6h-0.6V4.3z"/>
	<path class="st0" d="M20.5,6.6l0.4-0.4l0.4,0.4l-0.4,0.4L20.5,6.6z"/>
	<path class="st0" d="M22.6,7.1h0.6v0.6h-0.6V7.1z"/>
	<path class="st0" d="M24.4,6.6l0.4-0.4l0.4,0.4l-0.4,0.4L24.4,6.6z"/>
	<path class="st0" d="M25.4,4.3H26v0.6h-0.6V4.3z"/>
	<path class="st0" d="M24.4,2.6l0.4-0.4l0.4,0.4l-0.4,0.4L24.4,2.6z"/>
	<path class="st1" d="M19.1,6.4c0-0.1-0.2-0.2-0.3-0.2h-7.5c-0.1,0-0.2,0.1-0.3,0.2L8.8,12c0,0.1,0,0.2,0,0.3
		c0.1,0.1,0.2,0.1,0.3,0.1h0.6v4.7c0,0.2,0.1,0.3,0.3,0.3h10c0.2,0,0.3-0.1,0.3-0.3v-4.7H21c0.1,0,0.2-0.1,0.3-0.1
		c0.1-0.1,0.1-0.2,0-0.3L19.1,6.4z M14.1,16.8v-2.5H16v2.5H14.1z M19.7,16.8h-3.1V14c0-0.2-0.1-0.3-0.3-0.3h-2.5
		c-0.2,0-0.3,0.1-0.3,0.3v2.8h-3.1v-4.4h9.4V16.8z M9.6,11.8l1.9-5h7.1l1.9,5H9.6z"/>
	<path class="st1" d="M17.9,7.4h-5.7c-0.3,0-0.5,0.2-0.6,0.4l-0.8,2.5c-0.1,0.2,0,0.4,0.1,0.6c0.1,0.2,0.3,0.3,0.5,0.3h7.3
		c0.2,0,0.4-0.1,0.5-0.3c0.1-0.2,0.2-0.4,0.1-0.6l-0.8-2.5C18.4,7.6,18.2,7.4,17.9,7.4z M17.9,8.1L18.2,9h-1L17,8.1H17.9z M14.7,9.6
		v0.9h-1.5l0.2-0.9H14.7z M13.6,9l0.2-0.9h1V9H13.6z M15.4,9.6h1.3l0.2,0.9h-1.5V9.6z M15.4,9V8.1h1L16.6,9H15.4z M13.1,8.1L12.9,9
		h-1l0.3-0.9H13.1z M11.4,10.6l0.3-0.9h1.1l-0.2,0.9H11.4z M17.5,10.6l-0.2-0.9h1.1l0.3,0.9H17.5z"/>
	<path class="st1" d="M17.6,15.6h1.3c0.2,0,0.3-0.1,0.3-0.3V14c0-0.2-0.1-0.3-0.3-0.3h-1.3c-0.2,0-0.3,0.1-0.3,0.3v1.3
		C17.2,15.4,17.4,15.6,17.6,15.6z M17.9,14.3h0.6V15h-0.6V14.3z"/>
	<path class="st1" d="M11.3,15.6h1.3c0.2,0,0.3-0.1,0.3-0.3V14c0-0.2-0.1-0.3-0.3-0.3h-1.3c-0.2,0-0.3,0.1-0.3,0.3v1.3
		C11,15.4,11.1,15.6,11.3,15.6z M11.6,14.3h0.6V15h-0.6V14.3z"/>
	<path class="st1" d="M11.9,4h2.8c0.5,0,0.9-0.3,1.1-0.7c0.2-0.4,0.1-1-0.2-1.3c-0.3-0.4-0.8-0.5-1.3-0.4c-0.1-0.6-0.6-1-1.2-1
		c-0.6,0-1.1,0.4-1.2,0.9c-0.7,0-1.3,0.5-1.3,1.2C10.7,3.4,11.2,4,11.9,4z M11.9,2.1c0.1,0,0.1,0,0.2,0c0.1,0,0.2,0,0.3,0
		c0.1-0.1,0.1-0.2,0.1-0.3c0,0,0,0,0,0c0-0.3,0.1-0.5,0.4-0.6c0.2-0.1,0.5-0.1,0.7,0.1c0.2,0.2,0.3,0.4,0.2,0.7c0,0.1,0,0.3,0.1,0.4
		c0.1,0.1,0.3,0.1,0.4-0.1c0.1-0.1,0.3-0.2,0.5-0.2c0.3,0,0.6,0.3,0.6,0.6c0,0.3-0.3,0.6-0.6,0.6h-2.8c-0.3,0-0.6-0.3-0.6-0.6
		C11.3,2.4,11.6,2.1,11.9,2.1z"/>
	<path class="st1" d="M26.6,12.7c0-0.1-0.2-0.2-0.3-0.2h-3.1c-0.1,0-0.2,0.1-0.3,0.2L22,15.2c0,0.1,0,0.2,0,0.3
		c0.1,0.1,0.2,0.1,0.3,0.1h1.6v0.3h-0.6v0.6h0.6v0.3h-0.6v0.6h3.1v-0.6h-0.6v-0.3h0.6v-0.6h-0.6v-0.3h1.6c0.1,0,0.2-0.1,0.3-0.1
		c0.1-0.1,0.1-0.2,0-0.3L26.6,12.7z M26.3,13.7h-0.5l-0.1-0.6h0.4L26.3,13.7z M24.2,15l0.1-0.6h1l0.1,0.6H24.2z M24.3,13.7l0.1-0.6
		h0.7l0.1,0.6H24.3z M23.4,13.1h0.4l-0.1,0.6h-0.5L23.4,13.1z M22.9,14.3h0.7L23.5,15h-0.8L22.9,14.3z M25.1,16.8h-0.6v-1.3h0.6
		V16.8z M26,15l-0.1-0.6h0.7l0.2,0.6H26z"/>
</g>
</svg>
