<?xml version="1.0" encoding="utf-8"?>
<!-- Generator: Adobe Illustrator 21.1.0, SVG Export Plug-In . SVG Version: 6.00 Build 0)  -->
<svg version="1.1" id="Слой_1" xmlns="http://www.w3.org/2000/svg" xmlns:xlink="http://www.w3.org/1999/xlink" x="0px" y="0px"
	 viewBox="0 0 512 512" style="enable-background:new 0 0 512 512;" xml:space="preserve">
<style type="text/css">
	.st0{fill:#7D3DAF;}
	.st1{fill:#FFFFFF;}
</style>
<rect class="st0" width="512" height="512"/>
<g id="XMLID_7_">
	<path id="XMLID_8_" class="st1" d="M387.4,234.9c0.4-52.4-44.2-100.4-99.4-107c-1.1-0.1-2.3-0.3-3.6-0.5c-2.7-0.5-5.6-0.9-8.4-0.9
		c-11.3,0-14.4,8-15.2,12.7c-0.8,4.6,0,8.5,2.2,11.5c3.8,5.1,10.4,6,15.7,6.7c1.6,0.2,3,0.4,4.2,0.7c49.7,11.1,66.4,28.5,74.6,77.8
		c0.2,1.2,0.3,2.7,0.4,4.3c0.4,5.9,1.1,18.1,14.3,18.1h0c1.1,0,2.3-0.1,3.5-0.3c12.3-1.9,11.9-13.1,11.7-18.4
		c-0.1-1.5-0.1-2.9,0-3.9C387.4,235.4,387.4,235.1,387.4,234.9z"/>
	<path id="XMLID_9_" class="st1" d="M272.7,108.6c1.5,0.1,2.9,0.2,4,0.4c81.6,12.5,119.1,51.2,129.5,133.4c0.2,1.4,0.2,3.1,0.2,4.9
		c0.1,6.4,0.3,19.8,14.7,20.1l0.4,0c4.5,0,8.1-1.4,10.6-4c4.5-4.7,4.2-11.6,3.9-17.2c-0.1-1.4-0.1-2.7-0.1-3.8
		c1-84.1-71.7-160.3-155.7-163.1c-0.3,0-0.7,0-1,0.1c-0.2,0-0.5,0.1-1,0.1c-0.8,0-1.9-0.1-3-0.1c-1.3-0.1-2.8-0.2-4.3-0.2
		c-13.4,0-15.9,9.5-16.2,15.2C254,107.3,266.7,108.2,272.7,108.6z"/>
	<path id="XMLID_10_" class="st1" d="M402.3,348.6c-1.7-1.3-3.5-2.7-5.2-4c-8.9-7.2-18.4-13.8-27.5-20.2c-1.9-1.3-3.8-2.7-5.7-4
		c-11.7-8.2-22.3-12.2-32.3-12.2c-13.4,0-25.1,7.4-34.8,22c-4.3,6.5-9.5,9.6-15.9,9.6c-3.8,0-8.1-1.1-12.8-3.2
		c-37.9-17.2-64.9-43.5-80.4-78.3c-7.5-16.8-5.1-27.8,8.1-36.7c7.5-5.1,21.4-14.5,20.4-32.6c-1.1-20.5-46.4-82.3-65.5-89.3
		c-8.1-3-16.6-3-25.3-0.1c-21.9,7.4-37.7,20.3-45.5,37.5c-7.6,16.6-7.2,36,1,56.2c23.8,58.5,57.3,109.4,99.5,151.5
		c41.3,41.2,92.1,74.9,151,100.2c5.3,2.3,10.9,3.5,14.9,4.4c1.4,0.3,2.6,0.6,3.5,0.8c0.5,0.1,1,0.2,1.5,0.2l0.5,0c0,0,0,0,0,0
		c27.7,0,60.9-25.3,71.1-54.1C431.7,371.1,415.4,358.7,402.3,348.6z"/>
	<path id="XMLID_11_" class="st1" d="M285,175.4c-4.7,0.1-14.6,0.4-18.1,10.4c-1.6,4.7-1.4,8.8,0.6,12.1c2.9,4.9,8.6,6.4,13.7,7.2
		c18.6,3,28.1,13.2,30,32.3c0.9,8.9,6.9,15.1,14.6,15.1h0c0.6,0,1.1,0,1.7-0.1c9.2-1.1,13.7-7.9,13.3-20.2c0.1-12.8-6.6-27.4-18-39
		C311.4,181.7,297.6,175.1,285,175.4z"/>
</g>
</svg>
