<?xml version="1.0" encoding="utf-8"?>
<!-- Generator: Adobe Illustrator 21.1.0, SVG Export Plug-In . SVG Version: 6.00 Build 0)  -->
<svg version="1.1" id="Слой_1" xmlns="http://www.w3.org/2000/svg" xmlns:xlink="http://www.w3.org/1999/xlink" x="0px" y="0px"
	 viewBox="0 0 512 512" style="enable-background:new 0 0 512 512;" xml:space="preserve">
<style type="text/css">
	.st0{fill:#FFFFFF;stroke:#000000;stroke-miterlimit:10;}
	.st1{fill:#7D3DAF;}
	.st2{fill:#FFFFFF;}
</style>
<rect x="207" y="51" class="st0" width="242" height="461"/>
<path class="st1" d="M483.7,0H28.2C12.6,0,0,12.7,0,28.3v455.5C0,499.4,12.7,512,28.3,512h455.5c15.6,0,28.3-12.6,28.3-28.3l0,0
	V28.2C512,12.6,499.3,0,483.7,0z"/>
<g>
	<path class="st2" d="M443.3,303.4c12.4-106.1-5.9-173.1-39-203.4l0,0c-53.3-51.8-233.3-59.4-297,2.3
		c-28.6,30.2-38.7,74.5-39.8,129.4C66.3,286.5,65,389.4,159,417.2h0.1l-0.1,42.6c0,0-0.6,17.3,10.2,20.7c12.4,4.1,18-3.9,56.4-50.8
		c64.3,5.7,113.7-7.3,119.3-9.2C357.9,416.1,431.4,406.2,443.3,303.4L443.3,303.4z M231.9,399.8c0,0-40.7,51.8-53.4,65.2
		c-4.1,4.4-8.7,4-8.6-4.7c0-5.7,0.3-70.7,0.3-70.7c-79.7-23.3-75-110.8-74.1-156.6c0.9-45.8,9.1-83.3,33.3-108.6
		c55.9-53.5,213.7-41.5,253.9-3c49.2,44.4,31.7,169.9,31.8,174.2c-10.1,85.8-69.6,91.3-80.6,95C329.9,392.2,286.5,403.5,231.9,399.8
		L231.9,399.8z"/>
	<path class="st2" d="M254.4,134.4c-6.6,0-6.6,10.6,0,10.7c51.6,0.4,94.1,37.1,94.5,104.3c0,7.1,10.2,7,10.1-0.1h0
		C358.5,176.8,312.1,134.8,254.4,134.4L254.4,134.4z"/>
	<path class="st2" d="M322.3,238.2c-0.2,7,10,7.3,10.1,0.2c0.8-40-23.3-72.9-68.7-76.3c-6.6-0.5-7.3,10.2-0.7,10.7
		C302.3,175.8,323.1,203.2,322.3,238.2L322.3,238.2z"/>
	<path class="st2" d="M311.4,283.7c-8.5-5-17.2-1.9-20.8,3l-7.5,9.9c-3.8,5-10.9,4.4-10.9,4.4c-52.1-14-66-69.6-66-69.6
		s-0.6-7.5,4.1-11.6l9.4-7.9c4.7-3.8,7.7-13,2.9-22c-12.8-23.5-21.4-31.7-25.7-37.9c-4.6-5.9-11.5-7.2-18.7-3.2H178
		c-14.9,8.9-31.3,25.6-26.1,42.8c8.9,18.1,25.3,75.8,77.6,119.4c24.6,20.6,63.5,41.8,80,46.6l0.2,0.2c16.3,5.5,32.1-11.8,40.5-27.5
		v-0.1c3.7-7.6,2.5-14.8-3-19.5C337.6,301.2,322.9,290.5,311.4,283.7L311.4,283.7z"/>
	<path class="st2" d="M270.8,201.4c16.6,1,24.6,9.8,25.5,28c0.3,7.1,10.4,6.6,10.1-0.5c-1.1-23.7-13.2-36.9-35.1-38.1
		C264.7,190.4,264.1,201,270.8,201.4L270.8,201.4z"/>
</g>
</svg>
