<?xml version="1.0" encoding="utf-8"?>
<!-- Generator: Adobe Illustrator 21.1.0, SVG Export Plug-In . SVG Version: 6.00 Build 0)  -->
<svg version="1.1" id="Слой_1" xmlns="http://www.w3.org/2000/svg" xmlns:xlink="http://www.w3.org/1999/xlink" x="0px" y="0px"
	 viewBox="0 0 512 512" style="enable-background:new 0 0 512 512;" xml:space="preserve">
<style type="text/css">
	.st0{fill:#2CB742;}
	.st1{fill:#FFFFFF;}
</style>
<rect class="st0" width="512" height="512"/>
<g>
	<path class="st0" d="M60.2,465.5l34.7-104.2c-17.6-29.6-27.8-64.2-27.8-101.2c0-109.6,88.8-198.4,198.4-198.4S464,150.5,464,260.1
		s-88.8,198.4-198.4,198.4c-33.3,0-64.7-8.3-92.3-22.8L60.2,465.5z"/>
	<path class="st1" d="M392.2,326.1c-9.2-17.3-43-37.1-43-37.1c-7.6-4.4-16.9-4.8-21.2,2.9c0,0-11,13.2-13.8,15.1
		c-12.8,8.6-24.6,8.3-36.5-3.6L250,275.6l-27.7-27.7c-11.9-11.9-12.3-23.7-3.6-36.5c1.9-2.8,15.1-13.8,15.1-13.8
		c7.8-4.4,7.3-13.6,2.9-21.2c0,0-19.8-33.8-37.1-43c-7.4-3.9-16.4-2.5-22.3,3.4L165,149.1c-38.8,38.8-19.7,82.7,19.1,121.5
		l35.5,35.5l35.5,35.5c38.8,38.8,82.7,57.9,121.5,19.1l12.2-12.2C394.7,342.5,396.1,333.5,392.2,326.1z"/>
</g>
</svg>
